<svg width="15" height="15" viewBox="0 0 15 15" fill="none" xmlns="http://www.w3.org/2000/svg">
<path fill-rule="evenodd" clip-rule="evenodd" d="M9.62132 1.13607C9.81658 0.940811 10.1332 0.940811 10.3284 1.13607L11.3891 2.19673L12.8033 3.61095L13.864 4.67161C14.0592 4.86687 14.0592 5.18345 13.864 5.37871C13.6687 5.57398 13.3521 5.57398 13.1569 5.37871L12.5038 4.7257L8.8673 9.57444L9.97487 10.682C10.1701 10.8773 10.1701 11.1939 9.97487 11.3891C9.77961 11.5844 9.46303 11.5844 9.26777 11.3891L7.85355 9.97491L6.79289 8.91425L3.52252 12.1846C3.32726 12.3799 3.01068 12.3799 2.81542 12.1846C2.62016 11.9894 2.62016 11.6728 2.81542 11.4775L6.08579 8.20714L5.02513 7.14648L3.61091 5.73227C3.41565 5.537 3.41565 5.22042 3.61091 5.02516C3.80618 4.8299 4.12276 4.8299 4.31802 5.02516L5.4256 6.13274L10.2743 2.49619L9.62132 1.84318C9.42606 1.64792 9.42606 1.33134 9.62132 1.13607Z" fill="#131D16"/>
<path fill-rule="evenodd" clip-rule="evenodd" d="M9.62132 1.13607C9.81658 0.940811 10.1332 0.940811 10.3284 1.13607L11.3891 2.19673L12.8033 3.61095L13.864 4.67161C14.0592 4.86687 14.0592 5.18345 13.864 5.37871C13.6687 5.57398 13.3521 5.57398 13.1569 5.37871L12.5038 4.7257L8.8673 9.57444L9.97487 10.682C10.1701 10.8773 10.1701 11.1939 9.97487 11.3891C9.77961 11.5844 9.46303 11.5844 9.26777 11.3891L7.85355 9.97491L6.79289 8.91425L3.52252 12.1846C3.32726 12.3799 3.01068 12.3799 2.81542 12.1846C2.62016 11.9894 2.62016 11.6728 2.81542 11.4775L6.08579 8.20714L5.02513 7.14648L3.61091 5.73227C3.41565 5.537 3.41565 5.22042 3.61091 5.02516C3.80618 4.8299 4.12276 4.8299 4.31802 5.02516L5.4256 6.13274L10.2743 2.49619L9.62132 1.84318C9.42606 1.64792 9.42606 1.33134 9.62132 1.13607Z" fill="#131D16"/>
</svg>
