<svg width="15" height="15" viewBox="0 0 15 15" fill="none" xmlns="http://www.w3.org/2000/svg">
<path fill-rule="evenodd" clip-rule="evenodd" d="M10.3284 1.1362C10.1332 0.940933 9.81659 0.940933 9.62133 1.1362C9.42606 1.33146 9.42606 1.64804 9.62133 1.8433L10.2743 2.49631L5.4256 6.13286L4.31802 5.02528C4.12276 4.83002 3.80618 4.83002 3.61092 5.02528C3.41566 5.22054 3.41566 5.53713 3.61092 5.73239L5.02513 7.1466L6.08579 8.20726L2.81542 11.4776C2.62016 11.6729 2.62016 11.9895 2.81542 12.1847C3.01069 12.38 3.32727 12.38 3.52253 12.1847L6.7929 8.91437L7.85356 9.97503L9.26777 11.3892C9.46303 11.5845 9.77962 11.5845 9.97488 11.3892C10.1701 11.194 10.1701 10.8774 9.97488 10.6821L8.8673 9.57456L12.5038 4.72583L13.1569 5.37884C13.3521 5.5741 13.6687 5.5741 13.864 5.37884C14.0592 5.18357 14.0592 4.86699 13.864 4.67173L12.8033 3.61107L11.3891 2.19686L10.3284 1.1362ZM6.13989 6.84715L10.9886 3.2106L11.7896 4.01154L8.15302 8.86027L6.13989 6.84715Z" fill="#131D16"/>
</svg>
